<?xml version="1.0" encoding="UTF-8" standalone="no"?>
<!-- Created with Inkscape (http://www.inkscape.org/) -->

<svg
   width="1024"
   height="1024"
   viewBox="0 0 1024 1024"
   version="1.1"
   id="svg29"
   inkscape:version="1.1.2 (0a00cf5339, 2022-02-04, custom)"
   sodipodi:docname="icon.svg"
   xmlns:inkscape="http://www.inkscape.org/namespaces/inkscape"
   xmlns:sodipodi="http://sodipodi.sourceforge.net/DTD/sodipodi-0.dtd"
   xmlns:xlink="http://www.w3.org/1999/xlink"
   xmlns="http://www.w3.org/2000/svg"
   xmlns:svg="http://www.w3.org/2000/svg">
  <sodipodi:namedview
     id="namedview31"
     pagecolor="#ffffff"
     bordercolor="#666666"
     borderopacity="1.0"
     inkscape:pageshadow="2"
     inkscape:pageopacity="0.0"
     inkscape:pagecheckerboard="0"
     inkscape:document-units="px"
     showgrid="false"
     units="px"
     width="1024px"
     inkscape:snap-bbox="true"
     inkscape:bbox-nodes="true"
     inkscape:snap-bbox-midpoints="false"
     inkscape:zoom="0.35355339"
     inkscape:cx="568.51385"
     inkscape:cy="947.52308"
     inkscape:window-width="2560"
     inkscape:window-height="1017"
     inkscape:window-x="-8"
     inkscape:window-y="-8"
     inkscape:window-maximized="1"
     inkscape:current-layer="g1436">
    <inkscape:grid
       type="xygrid"
       id="grid33"
       empspacing="8"
       color="#000000"
       opacity="0.03921569"
       empcolor="#000000"
       empopacity="0.07843137"
       units="px"
       spacingx="1"
       spacingy="1" />
  </sodipodi:namedview>
  <defs
     id="defs26">
    <linearGradient
       id="linearGradient851"
       inkscape:swatch="solid">
      <stop
         style="stop-color:#1884ae;stop-opacity:0;"
         offset="0"
         id="stop849" />
    </linearGradient>
    <linearGradient
       inkscape:collect="always"
       xlink:href="#linearGradient851"
       id="linearGradient853"
       x1="574.48816"
       y1="257.00787"
       x2="1088.5042"
       y2="257.00787"
       gradientUnits="userSpaceOnUse" />
    <filter
       style="color-interpolation-filters:sRGB"
       inkscape:label="Drop Shadow"
       id="filter1414"
       x="-0.081818182"
       y="-0.043902439"
       width="1.1636364"
       height="1.0969512">
      <feFlood
         flood-opacity="0.501961"
         flood-color="rgb(0,0,0)"
         result="flood"
         id="feFlood1404" />
      <feComposite
         in="flood"
         in2="SourceGraphic"
         operator="in"
         result="composite1"
         id="feComposite1406" />
      <feGaussianBlur
         in="composite1"
         stdDeviation="12"
         result="blur"
         id="feGaussianBlur1408" />
      <feOffset
         dx="0"
         dy="6"
         result="offset"
         id="feOffset1410" />
      <feComposite
         in="SourceGraphic"
         in2="offset"
         operator="over"
         result="composite2"
         id="feComposite1412" />
    </filter>
    <linearGradient
       inkscape:collect="always"
       xlink:href="#linearGradient851"
       id="linearGradient853-3"
       x1="574.48816"
       y1="257.00787"
       x2="1088.5042"
       y2="257.00787"
       gradientUnits="userSpaceOnUse" />
    <linearGradient
       inkscape:collect="always"
       xlink:href="#linearGradient851"
       id="linearGradient950"
       gradientUnits="userSpaceOnUse"
       x1="574.48816"
       y1="257.00787"
       x2="1088.5042"
       y2="257.00787" />
  </defs>
  <g
     inkscape:label="Layer 1"
     inkscape:groupmode="layer"
     id="layer1">
    <g
       id="g1436"
       transform="translate(-1630.4882)"
       inkscape:export-filename="..\assets\adaptive-icon.png"
       inkscape:export-xdpi="96"
       inkscape:export-ydpi="96">
      <rect
         style="fill:url(#linearGradient950);fill-opacity:1;stroke:none;stroke-width:0.944882;-inkscape-stroke:none;stop-color:#000000"
         id="rect10"
         width="1024"
         height="1024"
         x="574.48816"
         y="0"
         rx="0"
         ry="0" />
      <path
         id="rect1856"
         style="opacity:1;fill:#ffffff;stroke-width:1.18286;-inkscape-stroke:none;filter:url(#filter1414);stop-color:#000000"
         d="m -544,192 c -35.46,0 -64,28.544 -64,64 v 48 h -12 c -6.65,0 -12,5.352 -12,12 0,6.648 5.35,12 12,12 h 12 v 80 h -12 c -6.65,0 -12,5.352 -12,12 0,6.648 5.35,12 12,12 h 12 v 76.50586 C -675.37996,534.80986 -719.81,599.664 -720,672 c 0,46.678 18.54078,91.44417 51.55078,124.45117 C -635.43922,829.45717 -590.68,848 -544,848 c 46.68,0 91.43922,-18.54283 124.44922,-51.54883 C -386.54078,763.44417 -368,718.678 -368,672 -368.02,599.517 -412.48,534.46052 -480,508.10352 V 432 h 12 c 6.65,0 12,-5.352 12,-12 0,-6.648 -5.35,-12 -12,-12 h -12 v -80 h 12 c 6.65,0 12,-5.352 12,-12 0,-6.648 -5.35,-12 -12,-12 h -12 v -48 c 0,-35.456 -28.54,-64 -64,-64 z m 0,24 c 22.16,0 40,17.84 40,40 v 60 104 105.4043 c 66.11,18.033 111.98,78.0707 112,146.5957 0,83.947 -68.05,152 -152,152 -83.95,0 -152,-68.053 -152,-152 0.08,-68.474 45.94004,-128.43998 112,-146.45898 V 420 316 256 c 0,-22.16 17.84,-40 40,-40 z m 0,160 c -8.86,0 -16,3.568 -16,8 v 161.57617 c -60.24607,7.59074 -106.32564,56.2883 -111.49414,115.84375 7.76224,-6.31816 17.78901,-11.95898 31.28125,-11.95898 19.80331,0 32.37065,12.18151 40.93945,20.8164 8.5689,8.6349 13.1406,13.72266 23.9043,13.72266 10.7637,0 15.33344,-5.08775 23.90234,-13.72266 8.5688,-8.6349 21.13616,-20.8164 40.93946,-20.8164 19.8034,0 32.37055,12.1815 40.93945,20.8164 8.5688,8.63491 13.13874,13.72266 23.90234,13.72266 10.7637,0 15.3355,-5.08776 23.9043,-13.72266 1.66534,-1.67816 3.53273,-3.49571 5.53711,-5.31836 C -419.85559,603.80215 -466.56437,553.31679 -528,545.57617 V 384 c 0,-4.432 -7.14,-8 -16,-8 z m -96.21289,297.46094 c -10.76367,0 -15.33349,5.08775 -23.90234,13.72265 -1.83438,1.84852 -3.88831,3.84643 -6.13477,5.85743 2.88307,17.42331 9.28881,33.64802 18.45508,47.9414 8.53116,-8.51381 20.70857,-19.52148 39.58203,-19.52148 19.8033,0 32.37065,12.18151 40.93945,20.8164 8.5689,8.6349 13.1406,13.72266 23.9043,13.72266 10.7637,0 15.33344,-5.08775 23.90234,-13.72266 8.5688,-8.6349 21.13616,-20.8164 40.93946,-20.8164 19.8034,0 32.37055,12.1815 40.93945,20.8164 1.04401,1.05208 1.81616,1.7054 2.75977,2.64844 9.38355,-13.50689 16.22579,-28.90084 19.85156,-45.50586 -7.03875,4.81378 -15.69381,8.58008 -26.70899,8.58008 -19.8033,0 -32.37065,-12.18151 -40.93945,-20.81641 -8.5689,-8.63489 -13.13864,-13.72265 -23.90234,-13.72265 -10.7636,0 -15.3354,5.08775 -23.9043,13.72265 -8.5688,8.63491 -21.1341,20.81641 -40.9375,20.81641 -19.8033,0 -32.37065,-12.1815 -40.93945,-20.81641 -8.5689,-8.6349 -13.14069,-13.72265 -23.9043,-13.72265 z m 28,72 c -10.7637,0 -15.33349,5.08775 -23.90234,13.72265 -0.24297,0.24484 -0.56844,0.53055 -0.82032,0.78125 C -613.60525,784.60468 -580.60953,800 -544,800 c 34.91421,0 66.54723,-13.99646 89.64062,-36.66406 -1.51761,-1.42382 -2.95773,-2.83437 -4.26562,-4.15235 -8.5689,-8.63489 -13.13864,-13.72265 -23.90234,-13.72265 -10.7636,0 -15.3354,5.08775 -23.9043,13.72265 -8.5688,8.63491 -21.1341,20.81641 -40.9375,20.81641 -19.8033,0 -32.37065,-12.1815 -40.93945,-20.81641 -8.5689,-8.6349 -13.1407,-13.72265 -23.9043,-13.72265 z"
         transform="matrix(0.81133338,0,0,0.81133338,1527.8536,98.672643)" />
    </g>
    <g
       id="g1723"
       inkscape:export-filename="..\assets\icon.png"
       inkscape:export-xdpi="96"
       inkscape:export-ydpi="96">
      <rect
         style="fill:#1884ae;fill-opacity:1;stroke:none;stroke-width:0.944882;-inkscape-stroke:none;stop-color:#000000"
         id="rect1254"
         width="1024"
         height="1024"
         x="0"
         y="0"
         rx="0"
         ry="0" />
      <use
         x="0"
         y="0"
         xlink:href="#g1436"
         id="use1537"
         transform="translate(1056)"
         width="100%"
         height="100%" />
    </g>
    <use
       x="0"
       y="0"
       xlink:href="#g1723"
       id="use1811"
       transform="matrix(0.046875,0,0,0.046875,1056,0)"
       width="100%"
       height="100%"
       inkscape:export-filename="..\assets\favicon.png"
       inkscape:export-xdpi="96"
       inkscape:export-ydpi="96"
       style="fill:#d40000" />
    <g
       id="g2498"
       inkscape:export-filename="..\assets\splash.png"
       inkscape:export-xdpi="96"
       inkscape:export-ydpi="96">
      <rect
         style="fill:url(#linearGradient853);stroke-width:0.944882;-inkscape-stroke:none;stop-color:#000000;font-variation-settings:normal;opacity:1;vector-effect:none;fill-opacity:1;stroke:none;stroke-linecap:butt;stroke-linejoin:miter;stroke-miterlimit:4;stroke-dasharray:none;stroke-dashoffset:0;stroke-opacity:1;stop-opacity:1"
         id="rect2365"
         width="1284"
         height="2778"
         x="1248"
         y="0" />
      <use
         x="0"
         y="0"
         xlink:href="#g1436"
         id="use2447"
         transform="matrix(0.38085938,0,0,0.38085938,2097.1874,1194)"
         width="100%"
         height="100%" />
      <g
         id="g18286"
         transform="translate(-2.8717041e-5,-42.9163)"
         style="opacity:0.52439">
        <text
           xml:space="preserve"
           style="font-style:normal;font-weight:normal;font-size:36px;line-height:1.25;font-family:sans-serif;text-align:center;text-anchor:middle;fill:#ffffff;fill-opacity:1;stroke:none"
           x="1890.432"
           y="2087.7502"
           id="text4290"><tspan
             sodipodi:role="line"
             id="tspan4288"
             x="1890.432"
             y="2087.7502">Copyright 2022, Manfred Hantschel</tspan></text>
        <path
           style="fill:#ffffff;stroke-width:1.5836"
           d="m 1786.2371,2030.1528 c 1.7301,-7.8294 2.1449,-8.3435 7.1187,-8.8223 3.4544,-0.3324 4.919,0.079 4.2334,1.1877 -0.5766,0.9329 -2.4315,1.6962 -4.122,1.6962 -3.8275,0 -4.0731,4.2573 -0.3025,5.2427 2.6061,0.681 2.6038,0.7351 -0.039,0.9079 -1.5457,0.1009 -3.4878,1.9652 -4.3156,4.1427 -0.828,2.1775 -2.1589,3.959 -2.9577,3.959 -0.8321,0 -0.6677,-3.5514 0.3849,-8.3139 z m 12.1856,4.7508 c 0.061,-1.9597 0.5957,-4.632 1.1877,-5.9385 0.592,-1.3064 2.8345,-2.5725 4.9835,-2.8136 l 3.9071,-0.4381 -3.5113,3.271 c -1.931,1.7992 -3.5111,4.6687 -3.5111,6.3768 0,1.708 -0.7126,3.1055 -1.5836,3.1055 -0.8709,0 -1.5335,-1.6034 -1.4723,-3.5631 z m 10.1264,1.8895 c -1.7689,-2.8624 0.6999,-9.1513 4.0042,-10.2001 6.9692,-2.2119 8.8141,3.9522 1.99,6.6487 -4.011,1.585 -4.0735,1.7341 -0.7918,1.8894 1.9597,0.092 3.5631,0.8809 3.5631,1.752 0,2.1133 -7.451,2.0369 -8.7655,-0.091 z m 7.1818,-7.7784 c 0,-0.8435 -1.0689,-1.1237 -2.3753,-0.6223 -1.3065,0.5013 -2.3754,1.1917 -2.3754,1.5339 0,0.3423 1.0689,0.6223 2.3754,0.6223 1.3064,0 2.3753,-0.6902 2.3753,-1.5339 z m 7.3902,8.3963 c -1.7207,-1.7207 -1.2039,-7.6644 0.8446,-9.7128 2.6664,-2.6664 7.0838,-2.3655 8.2061,0.5589 0.6575,1.7136 -0.6117,3.1352 -4.1855,4.6887 -4.3106,1.8739 -4.5606,2.2396 -1.5661,2.2917 1.9597,0.034 3.5631,0.7745 3.5631,1.6456 0,1.769 -5.2195,2.1706 -6.8622,0.5279 z m 6.8622,-7.5606 c 0,-0.3842 -0.6633,-1.1084 -1.4742,-1.6095 -0.8108,-0.501 -1.9217,-0.1869 -2.4688,0.6984 -0.5471,0.8851 0.1158,1.6093 1.4741,1.6093 1.3579,0 2.4689,-0.3141 2.4689,-0.6982 z m 10.4342,7.4375 c -1.7559,-1.7558 -0.9337,-6.5118 1.5559,-9.0015 1.3686,-1.3687 4.2013,-2.4885 6.2947,-2.4885 3.4395,0 3.7119,0.496 2.8266,5.1467 -0.5388,2.8307 -1.2325,5.4424 -1.5415,5.804 -0.9455,1.1064 -8.1437,1.5313 -9.1357,0.5393 z m 6.8739,-4.9475 c 0.8709,-1.6273 1.1398,-3.4027 0.5973,-3.9452 -1.3838,-1.3838 -5.2367,2.0909 -5.2367,4.7227 0,3.1484 2.7884,2.6812 4.6394,-0.7775 z m 6.4458,4.5427 c 0,-0.8711 1.1562,-1.5837 2.5693,-1.5837 2.0945,0 2.208,-0.4351 0.6146,-2.3552 -1.075,-1.2953 -1.541,-3.4332 -1.0354,-4.7508 0.5055,-1.3176 2.545,-2.3129 4.5321,-2.2117 2.6821,0.1365 2.8989,0.3702 0.8415,0.9078 -1.5243,0.3983 -2.7713,1.0379 -2.7713,1.4214 0,0.3834 0.8907,2.1344 1.9794,3.8912 1.6316,2.6326 1.5621,3.4596 -0.3958,4.705 -3.1137,1.9806 -6.3344,1.9685 -6.3344,-0.024 z m 16.6687,-3.5631 c 1.2938,-6.14 3.9278,-9.5659 3.8964,-5.0675 -0.036,4.9732 -1.8081,10.2142 -3.4561,10.2142 -0.8869,0 -1.0711,-2.153 -0.4403,-5.1467 z m 6.1601,3.2995 c 0.3633,-1.1615 1.0471,-3.8934 1.5194,-6.0709 0.6755,-3.1132 1.8877,-3.9949 5.6749,-4.1275 4.0035,-0.1396 4.816,0.439 4.816,3.4335 0,4.3695 -1.5087,8.6121 -3.0623,8.6121 -0.627,0 -0.8129,-2.2287 -0.4131,-4.9525 0.5396,-3.6768 0.1742,-4.7683 -1.4184,-4.2376 -1.1798,0.3933 -2.5407,2.391 -3.0243,4.4393 -0.4835,2.0482 -1.7506,4.0147 -2.816,4.3697 -1.0652,0.3551 -1.6396,-0.3046 -1.2762,-1.4661 z m 20.6249,-2.2965 c 0.5719,-2.2792 1.451,-6.1986 1.9532,-8.7098 0.7524,-3.7618 1.7152,-4.5661 5.4661,-4.5661 2.5039,0 4.5527,0.7126 4.5527,1.5836 0,0.871 -1.4252,1.5837 -3.1671,1.5837 -3.8967,0 -4.2172,4.244 -0.396,5.2427 2.1028,0.5495 1.919,0.7685 -0.7616,0.9079 -2.3681,0.1232 -3.8604,1.4889 -4.5264,4.1427 -0.5467,2.1775 -1.7063,3.959 -2.5773,3.959 -0.9172,0 -1.146,-1.7437 -0.5436,-4.1437 z m 12.5316,1.3724 c 0.425,-1.5243 1.1851,-4.222 1.6892,-5.9951 0.5297,-1.8629 2.2538,-3.2237 4.0846,-3.2237 1.7425,0 3.1682,0.2036 3.1682,0.4524 0,0.249 -1.4253,1.8777 -3.1672,3.6196 -1.7419,1.7421 -3.1671,4.2362 -3.1671,5.5427 0,1.3065 -0.7607,2.3754 -1.6904,2.3754 -0.9297,0 -1.3425,-1.2471 -0.9173,-2.7713 z m 11.5813,1.7156 c -1.8819,-1.8819 -1.1176,-8.0067 1.2437,-9.9664 1.2646,-1.0495 3.5215,-1.6712 5.0153,-1.3816 4.8351,0.9375 4.1958,4.4577 -1.2382,6.8175 -4.3707,1.8981 -4.6685,2.3058 -1.7217,2.357 1.9597,0.034 3.5631,0.7745 3.5631,1.6456 0,1.769 -5.2195,2.1706 -6.8622,0.5279 z m 6.8622,-7.5606 c 0,-0.3842 -0.6633,-1.1084 -1.4741,-1.6095 -0.8109,-0.501 -1.9218,-0.1869 -2.4689,0.6984 -0.5471,0.8851 0.1158,1.6093 1.4742,1.6093 1.3579,0 2.4688,-0.3141 2.4688,-0.6982 z m 5.487,6.9427 c -1.7689,-2.8624 0.6999,-9.1513 4.0042,-10.2001 6.9691,-2.2119 8.814,3.9522 1.99,6.6487 -4.011,1.585 -4.0735,1.7341 -0.7919,1.8894 1.9597,0.092 3.5631,0.8809 3.5631,1.752 0,2.1133 -7.4509,2.0369 -8.7654,-0.091 z m 7.1819,-7.7784 c 0,-0.8435 -1.069,-1.1237 -2.3754,-0.6223 -1.3065,0.5013 -2.3754,1.1917 -2.3754,1.5339 0,0.3423 1.0689,0.6223 2.3754,0.6223 1.3064,0 2.3754,-0.6902 2.3754,-1.5339 z m 5.3312,7.0969 c -1.2883,-3.3571 2.2785,-8.5923 6.5914,-9.6749 2.1523,-0.5401 3.9132,-1.9318 3.9132,-3.0925 0,-1.1605 0.8088,-2.6099 1.7973,-3.2209 1.3014,-0.8043 1.4847,0.9731 0.6643,6.4434 -0.623,4.1547 -1.4668,8.4245 -1.8749,9.4882 -1.023,2.6661 -10.0722,2.7123 -11.0913,0.056 z m 8.3283,-3.1353 c 0.4904,-1.2777 0.6143,-3.1547 0.2755,-4.1711 -0.4137,-1.2414 -1.5021,-0.9617 -3.3164,0.8527 -1.4854,1.4853 -2.7007,3.3623 -2.7007,4.1711 0,2.3866 4.7705,1.6781 5.7416,-0.8527 z m 7.6633,3.8168 c -0.5689,-0.9205 -0.6093,-3.3671 -0.089,-5.4371 1.2084,-4.8145 6.7874,-6.721 10.068,-3.4405 2.2018,2.2019 2.1807,2.8437 -0.2131,6.4972 -2.7087,4.1339 -7.8993,5.3992 -9.7651,2.3804 z m 7.735,-3.8183 c 1.0153,-2.646 -1.3439,-4.6866 -3.7204,-3.2179 -2.3677,1.4634 -1.9096,5.5425 0.6223,5.5425 1.2134,0 2.6074,-1.046 3.0981,-2.3246 z m 5.9391,3.5123 c 0.086,-1.0887 0.6501,-3.7473 1.2518,-5.9082 0.9713,-3.4872 2.0212,-3.9602 9.3438,-4.2096 7.6603,-0.2609 8.2495,-0.018 8.2495,3.4033 0,4.4417 -1.4978,8.6941 -3.0623,8.6941 -0.6269,0 -0.8128,-2.2287 -0.413,-4.9525 0.5397,-3.6768 0.1743,-4.7683 -1.4183,-4.2376 -1.1798,0.3933 -2.5407,2.391 -3.0243,4.4393 -0.4835,2.0482 -1.7141,4.0024 -2.7345,4.3427 -1.344,0.4479 -1.4716,-0.7201 -0.4629,-4.2376 1.064,-3.7094 0.8878,-4.8559 -0.7463,-4.8559 -1.1764,0 -2.6085,2.1379 -3.1824,4.7508 -0.574,2.6129 -1.6995,4.7508 -2.5013,4.7508 -0.8017,0 -1.3867,-0.8908 -1.2998,-1.9796 z m -103.0915,-13.7629 c 0,-0.8196 0.7126,-1.9305 1.5836,-2.4689 0.8709,-0.5383 1.5835,0.1322 1.5835,1.4901 0,1.3579 -0.7126,2.469 -1.5835,2.469 -0.871,0 -1.5836,-0.6706 -1.5836,-1.4902 z m -23.4586,-9.102 c -55.2496,-0.4972 -59.0341,-0.7107 -58.2377,-3.2837 0.4682,-1.5135 2.0153,-8.0965 3.4379,-14.6288 1.4226,-6.5323 3.5021,-15.7964 4.6213,-20.5868 1.1193,-4.7904 3.1988,-14.0544 4.6213,-20.5867 1.4226,-6.5324 2.9724,-13.1241 3.4442,-14.6482 0.7901,-2.5531 4.3547,-2.7713 45.261,-2.7713 41.6513,0 44.3353,0.1717 43.306,2.7713 -0.6036,1.5241 -1.6053,7.9479 -2.226,14.2751 -1.2073,12.3045 0.4016,35.2911 2.7655,39.5155 1.1715,2.0931 1.6214,1.7106 2.4559,-2.089 0.5619,-2.5585 2.3344,-6.6528 3.9388,-9.0987 2.8192,-4.2973 2.8217,-4.7539 0.074,-13.581 -1.5635,-5.0238 -3.3406,-14.185 -3.9488,-20.3584 l -1.1061,-11.2243 37.8047,-0.7867 c 20.7925,-0.4328 41.2064,-1.2659 45.3644,-1.8515 5.0678,-0.7135 8.3305,-0.4249 9.8975,0.8755 2.7776,2.3053 3.0343,8.322 0.5605,13.1374 -0.9775,1.9024 -3.53,5.3405 -5.6725,7.6401 -2.4901,2.6728 -3.2773,4.5632 -2.1819,5.2402 2.7452,1.6966 1.9842,8.7697 -1.5605,14.5053 -5.7337,9.2775 -21.7494,22.2627 -36.8622,29.8877 -12.5125,6.3131 -16.0159,7.374 -25.5829,7.7468 -6.0969,0.2375 -37.6755,0.1925 -70.1747,-0.1 z m 86.8855,-5.346 c 11.3265,-4.7614 27.6837,-15.3533 35.3219,-22.8721 7.1989,-7.0866 12.0885,-14.6627 12.0968,-18.7434 0,-1.6057 -1.4123,-3.2903 -3.1456,-3.7436 -2.8304,-0.7402 -2.4269,-1.6302 3.9589,-8.7328 4.0129,-4.4634 7.1106,-9.4742 7.1106,-11.5024 0,-1.9766 -1.0789,-4.4892 -2.3975,-5.5835 -3.3815,-2.8065 -14.8072,-0.9464 -24.5679,3.9997 -7.8474,3.9766 -20.5424,15.1648 -20.5424,18.1044 0,0.8244 3.9917,-0.6009 8.8706,-3.1673 8.9689,-4.718 16.4669,-6.0742 16.4669,-2.9785 0,3.8332 -3.8223,8.2036 -13.7426,15.7135 -5.766,4.365 -9.7917,7.9364 -8.946,7.9364 0.8457,0 4.8842,-1.1404 8.9743,-2.534 4.0902,-1.3936 8.6105,-2.0835 10.0453,-1.533 2.196,0.8428 1.7959,1.8394 -2.5301,6.3026 -2.8261,2.916 -9.7715,7.5606 -15.434,10.3216 -13.0039,6.3405 -25.0548,8.8992 -31.0619,6.5955 -2.4176,-0.9271 -4.8118,-2.7707 -5.3207,-4.0968 -1.8142,-4.7277 1.2202,-13.4586 7.3905,-21.2646 6.966,-8.8126 18.8013,-18.2889 31.7687,-25.4366 4.7098,-2.596 7.9838,-4.7329 7.2758,-4.7487 -3.1103,-0.07 -18.7956,8.7759 -28.6521,16.1574 -11.181,8.3733 -21.1554,19.6966 -26.3919,29.9613 -3.9034,7.6511 -4.0471,19.0069 -0.2821,22.2868 1.5242,1.3278 3.8402,2.8504 5.1467,3.3836 4.5363,1.8511 20.0095,-0.2193 28.5878,-3.8255 z m -136.2722,-7.024 c 0,-1.3065 1.247,-2.3864 2.7713,-2.3996 2.3684,-0.021 2.4259,-0.2475 0.3959,-1.5594 -2.0014,-1.2934 -1.912,-1.5388 0.5676,-1.5593 2.3517,-0.019 2.7433,0.7712 1.9493,3.9347 -0.573,2.283 -0.3104,3.959 0.6201,3.959 0.8876,0 1.6138,-1.4252 1.6138,-3.1671 0,-1.7421 0.7126,-3.1673 1.5835,-3.1673 0.871,0 1.5837,1.4775 1.5837,3.2834 0,2.2723 0.8532,3.1206 2.7713,2.755 1.5241,-0.2904 2.9928,-2.0779 3.2638,-3.9718 0.4198,-2.936 -0.2447,-3.4228 -4.5058,-3.3017 -2.7489,0.079 -5.5501,-0.751 -6.2249,-1.8425 -0.6746,-1.0917 -2.5381,-1.7321 -4.141,-1.4235 -1.8185,0.3502 -3.3095,2.493 -3.9652,5.6984 -0.5778,2.8254 -0.428,5.1371 0.333,5.1371 0.7611,0 1.3836,-1.0689 1.3836,-2.3754 z m 25.3501,-0.8153 c 1.3345,-2.4938 1.1904,-3.3891 -0.6603,-4.0992 -1.3023,-0.4999 -3.1146,-0.4472 -4.0272,0.1173 -2.5066,1.5492 -1.989,7.173 0.6602,7.173 1.2759,0 3.0882,-1.4357 4.0273,-3.1907 z m 13.5524,1.4381 c 0.7547,-1.2214 1.4887,-1.1013 2.4206,0.3958 1.0699,1.7189 1.9577,1.7642 4.4399,0.2263 2.4329,-1.5075 3.2588,-1.5075 3.8266,0 0.4079,1.0825 1.451,0.193 2.3879,-2.0366 1.6187,-3.8514 1.6666,-3.8623 1.7643,-0.396 0.055,1.9597 0.813,3.5631 1.684,3.5631 0.8709,0 1.6806,-1.6034 1.7992,-3.5631 l 0.2158,-3.5631 0.6827,3.5368 c 0.4809,2.4906 1.6267,3.3928 3.8735,3.05 2.8936,-0.4416 6.0117,-3.5092 6.0733,-5.9747 0.015,-0.5343 -1.5792,-0.8607 -3.5389,-0.7256 -1.9597,0.1351 -5.17,-0.759 -7.134,-1.9872 -2.8463,-1.7796 -4.0481,-1.8371 -5.9211,-0.2825 -1.2925,1.0726 -1.927,2.6347 -1.4099,3.4713 0.517,0.8366 -0.5419,0.5956 -2.3533,-0.5356 -2.4767,-1.5467 -3.7438,-1.6064 -5.1095,-0.2407 -0.9988,0.9988 -2.9242,1.3909 -4.2786,0.8712 -2.0616,-0.7912 -1.9658,-1.1301 0.5889,-2.0818 2.9006,-1.0805 2.9091,-1.1945 0.1736,-2.3087 -1.5828,-0.6446 -3.492,-0.5429 -4.2428,0.226 -0.7508,0.7689 -1.8491,3.3576 -2.4407,5.7529 -0.9098,3.6839 -0.5754,4.3548 2.1699,4.3548 1.785,0 3.7329,-0.7886 4.3286,-1.7526 z m 4.6464,-2.9982 c 0.5382,-0.871 1.2929,-1.5836 1.677,-1.5836 0.3841,0 0.6984,0.7126 0.6984,1.5836 0,0.871 -0.7548,1.5837 -1.6772,1.5837 -0.9223,0 -1.2365,-0.7127 -0.6982,-1.5837 z m 35.6308,1.327 c 0,-1.6007 0.6902,-2.9106 1.5339,-2.9106 0.8436,0 1.126,1.063 0.6274,2.362 -0.5341,1.3923 0.2304,2.7984 1.8623,3.4246 1.7736,0.6805 3.522,0.033 4.8644,-1.8035 1.1527,-1.5764 1.7201,-3.4738 1.2612,-4.2164 -0.4591,-0.7426 -3.2867,-1.3502 -6.2837,-1.3502 -3.2369,0 -5.4999,0.8036 -5.5741,1.9794 -0.1,1.5837 -0.2848,1.5837 -0.9237,0 -1.1373,-2.8182 -6.3489,-2.4527 -7.4916,0.5254 -0.5287,1.3778 -0.9613,3.1376 -0.9613,3.9108 0,0.7732 2.4942,1.3121 5.5426,1.1975 4.2483,-0.1597 5.5426,-0.8879 5.5426,-3.119 z m -51.5578,-10.6716 c 2.0891,-0.8177 3.7191,-3.9582 5.0796,-9.7862 1.1019,-4.7202 2.0335,-9.4729 2.0705,-10.5616 0.045,-1.3002 -2.3781,-1.9794 -7.0591,-1.9794 -5.2787,0 -7.1262,0.6158 -7.1262,2.3754 0,1.3372 1.4156,2.3754 3.239,2.3754 2.8775,0 3.1194,0.6626 2.1674,5.9385 -0.5894,3.2661 -1.3764,6.4729 -1.7489,7.1261 -0.3725,0.6533 -3.8419,1.1877 -7.7099,1.1877 -5.6387,0 -7.0346,-0.5493 -7.0417,-2.7713 0,-1.5243 1.5381,-9.7194 3.4289,-18.2114 l 3.4379,-15.44 h 7.7821 7.7821 l -1.0436,4.7508 c -0.9381,4.2716 -0.6514,4.7507 2.8435,4.7507 3.0805,0 4.0907,-1.0193 4.8696,-4.9133 0.5404,-2.7025 0.5874,-5.5529 0.1039,-6.3344 -0.4831,-0.7815 -6.9111,-1.421 -14.2846,-1.421 -12.4474,0 -13.5027,0.2549 -14.755,3.5631 -0.7419,1.9597 -2.9928,11.279 -5.0021,20.7096 -3.1278,14.6796 -3.3268,17.3532 -1.3834,18.5829 2.7169,1.7192 20.0004,1.7606 24.3494,0.058 z m 14.954,-4.5118 c 0.8383,-3.2661 1.7641,-7.3637 2.0572,-9.1057 0.4657,-2.768 1.9558,-3.2254 11.8211,-3.6289 l 11.2883,-0.4617 2.5515,-10.1572 c 1.4032,-5.5863 2.5513,-11.2577 2.5513,-12.6029 0,-2.0237 -2.4539,-2.4458 -14.2222,-2.4458 -13.4533,0 -14.2658,0.1926 -15.0316,3.5631 -0.4453,1.9597 -2.5975,11.2904 -4.7829,20.735 -2.1853,9.4445 -3.574,17.8178 -3.0862,18.6071 0.488,0.7895 1.8865,1.4355 3.1081,1.4355 1.2396,0 2.8944,-2.6239 3.7454,-5.9385 z m 4.9059,-21.3785 c 0.7162,-2.8307 1.7413,-7.1064 2.2778,-9.5015 0.9009,-4.021 1.567,-4.355 8.6867,-4.355 h 7.7109 l -2.3933,9.5015 -2.3935,9.5016 h -7.5955 -7.5954 z m 42.3928,24.5457 c 0.4641,-1.4045 -1.6145,-1.9795 -7.1551,-1.9795 h -7.8091 l 2.8027,-13.0646 c 1.5416,-7.1856 3.4954,-16.0933 4.3417,-19.795 1.4557,-6.3661 1.3479,-6.7303 -1.9926,-6.7303 -3.1385,0 -3.8476,1.4545 -6.3689,13.0647 -1.5605,7.1855 -3.7368,16.7653 -4.836,21.2884 -1.0992,4.5232 -1.5726,8.6498 -1.052,9.1705 0.5208,0.5208 5.5522,0.7395 11.1811,0.486 6.4298,-0.2895 10.4774,-1.1966 10.8882,-2.4402 z"
           id="path18165" />
      </g>
    </g>
  </g>
</svg>
