<?xml version="1.0" encoding="UTF-8" standalone="no"?>
<!-- Created with Inkscape (http://www.inkscape.org/) -->

<svg
   width="320"
   height="320"
   viewBox="0 0 320 320"
   version="1.1"
   id="svg66618"
   inkscape:version="1.1.2 (0a00cf5339, 2022-02-04, custom)"
   sodipodi:docname="thermometer.svg"
   xmlns:inkscape="http://www.inkscape.org/namespaces/inkscape"
   xmlns:sodipodi="http://sodipodi.sourceforge.net/DTD/sodipodi-0.dtd"
   xmlns="http://www.w3.org/2000/svg"
   xmlns:svg="http://www.w3.org/2000/svg">
  <sodipodi:namedview
     id="namedview66620"
     pagecolor="#ffffff"
     bordercolor="#666666"
     borderopacity="1.0"
     inkscape:pageshadow="2"
     inkscape:pageopacity="0"
     inkscape:pagecheckerboard="0"
     inkscape:document-units="px"
     showgrid="false"
     units="px"
     inkscape:zoom="1.3914063"
     inkscape:cx="-85.884332"
     inkscape:cy="131.52161"
     inkscape:window-width="2560"
     inkscape:window-height="1017"
     inkscape:window-x="-8"
     inkscape:window-y="-8"
     inkscape:window-maximized="1"
     inkscape:current-layer="g89717"
     inkscape:snap-bbox="false"
     inkscape:bbox-nodes="true"
     inkscape:snap-bbox-midpoints="true"
     width="320px"
     inkscape:snap-text-baseline="true">
    <inkscape:grid
       type="xygrid"
       id="grid66679"
       units="px"
       spacingx="1"
       spacingy="1"
       empspacing="8" />
  </sodipodi:namedview>
  <defs
     id="defs66615">
    <clipPath
       clipPathUnits="userSpaceOnUse"
       id="clipPath91510">
      <rect
         style="fill:#ffffff;fill-opacity:1;stroke-width:0.944882;-inkscape-stroke:none;stop-color:#000000"
         id="rect91512"
         width="48"
         height="288"
         x="136"
         y="16"
         rx="24"
         ry="24" />
    </clipPath>
  </defs>
  <g
     inkscape:label="Layer 1"
     inkscape:groupmode="layer"
     id="layer1">
    <g
       id="g89717">
      <path
         id="path67788"
         style="fill:#000000;stroke-width:0.944882;-inkscape-stroke:none;stop-color:#000000;fill-opacity:1"
         d="M 158.08984 0 C 139.59871 0 124.27039 13.699428 120.75977 32 L 112 32 C 109.784 32 108 33.784 108 36 C 108 38.216 109.784 40 112 40 L 120 40 L 120 66 L 114 66 C 112.892 66 112 66.892 112 68 C 112 69.108 112.892 70 114 70 L 120 70 L 120 96 L 112 96 C 109.784 96 108 97.784 108 100 C 108 102.216 109.784 104 112 104 L 120 104 L 120 130 L 114 130 C 112.892 130 112 130.892 112 132 C 112 133.108 112.892 134 114 134 L 120 134 L 120 160 L 112 160 C 109.784 160 108 161.784 108 164 C 108 166.216 109.784 168 112 168 L 120 168 L 120 194 L 114 194 C 112.892 194 112 194.892 112 196 C 112 197.108 112.892 198 114 198 L 120 198 L 120 206.20312 A 64 64 0 0 0 96 256 A 64 64 0 0 0 151.78516 319.41211 C 153.83942 319.76939 155.93619 320 158.08984 320 L 160 320 L 161.91016 320 C 164.06381 320 166.16058 319.76939 168.21484 319.41211 A 64 64 0 0 0 224 256 A 64 64 0 0 0 200 206.05859 L 200 198 L 206 198 C 207.108 198 208 197.108 208 196 C 208 194.892 207.108 194 206 194 L 200 194 L 200 168 L 208 168 C 210.216 168 212 166.216 212 164 C 212 161.784 210.216 160 208 160 L 200 160 L 200 134 L 206 134 C 207.108 134 208 133.108 208 132 C 208 130.892 207.108 130 206 130 L 200 130 L 200 104 L 208 104 C 210.216 104 212 102.216 212 100 C 212 97.784 210.216 96 208 96 L 200 96 L 200 70 L 206 70 C 207.108 70 208 69.108 208 68 C 208 66.892 207.108 66 206 66 L 200 66 L 200 40 L 208 40 C 210.216 40 212 38.216 212 36 C 212 33.784 210.216 32 208 32 L 199.24023 32 C 195.72961 13.699428 180.40129 0 161.91016 0 L 158.08984 0 z M 160 8 C 161.02933 8 162.04329 8.0581023 163.04688 8.1523438 C 163.38658 8.1841744 163.71822 8.2389678 164.05469 8.28125 C 164.71538 8.3644368 165.37238 8.457449 166.01953 8.5800781 C 166.40028 8.6520661 166.77462 8.7389525 167.15039 8.8242188 C 167.73503 8.9571933 168.31306 9.103165 168.88477 9.2675781 C 169.28918 9.3835661 169.69031 9.5034979 170.08789 9.6347656 C 170.61838 9.8103682 171.13871 10.00485 171.65625 10.207031 C 172.0444 10.358244 172.43392 10.5042 172.81445 10.669922 C 173.31842 10.890018 173.80704 11.135924 174.29688 11.380859 C 175.45681 11.959154 176.58643 12.587174 177.66016 13.296875 C 178.19259 13.648795 178.69771 14.033697 179.20703 14.416016 C 179.43155 14.585081 179.66298 14.745107 179.88281 14.919922 C 180.39974 15.3297 180.89466 15.762676 181.38477 16.203125 C 181.56255 16.363392 181.7419 16.521357 181.91602 16.685547 C 182.42502 17.164024 182.91594 17.659171 183.39258 18.169922 C 183.51041 18.296577 183.62445 18.426117 183.74023 18.554688 C 184.25374 19.123121 184.75068 19.70399 185.22266 20.308594 C 187.88299 23.716502 189.85196 27.676865 190.95898 32 C 191.61445 34.559715 192 37.230331 192 40 L 192 66 L 192 70 L 192 96 L 192 104 L 192 130 L 192 134 L 192 160 L 192 168 L 192 194 L 192 198 L 192 210.0625 A 56 56 0 0 1 216 256 A 56 56 0 0 1 166.91602 311.23633 C 166.0295 311.4304 165.12573 311.57401 164.21289 311.69336 C 164.1951 311.69569 164.17795 311.70083 164.16016 311.70312 C 164.15633 311.70362 164.15226 311.70263 164.14844 311.70312 C 162.78774 311.87822 161.40986 312 160 312 C 158.59014 312 157.21226 311.87822 155.85156 311.70312 C 155.84772 311.70263 155.84369 311.70362 155.83984 311.70312 A 56 56 0 0 1 155.78711 311.69336 C 154.87427 311.57401 153.9705 311.4304 153.08398 311.23633 A 56 56 0 0 1 104 256 A 56 56 0 0 1 128 210.18164 L 128 198 L 128 194 L 128 168 L 128 160 L 128 134 L 128 130 L 128 104 L 128 96 L 128 70 L 128 66 L 128 40 C 128 37.230331 128.38555 34.559715 129.04102 32 C 130.14804 27.676865 132.11701 23.716502 134.77734 20.308594 C 135.24932 19.70399 135.74626 19.123121 136.25977 18.554688 C 136.37555 18.426117 136.48959 18.296577 136.60742 18.169922 C 137.08406 17.659171 137.57498 17.164024 138.08398 16.685547 C 138.2581 16.521357 138.43745 16.363392 138.61523 16.203125 C 139.10534 15.762676 139.60026 15.3297 140.11719 14.919922 C 140.33702 14.745107 140.56845 14.585081 140.79297 14.416016 C 141.30229 14.033697 141.80741 13.648795 142.33984 13.296875 C 143.41357 12.587174 144.5432 11.959154 145.70312 11.380859 C 146.19295 11.135924 146.68158 10.890018 147.18555 10.669922 C 147.56608 10.5042 147.9556 10.358244 148.34375 10.207031 C 148.86129 10.00485 149.38162 9.8103682 149.91211 9.6347656 C 150.30969 9.5034979 150.71082 9.3835661 151.11523 9.2675781 C 151.68694 9.103165 152.26497 8.9571934 152.84961 8.8242188 C 153.22538 8.7389525 153.59972 8.6520661 153.98047 8.5800781 C 154.62762 8.457449 155.28462 8.3644368 155.94531 8.28125 C 156.28178 8.2389678 156.61342 8.1841744 156.95312 8.1523438 C 157.95671 8.0581022 158.97067 8 160 8 z M 160 208 A 48 48 0 0 0 112 256 A 48 48 0 0 0 160 304 A 48 48 0 0 0 208 256 A 48 48 0 0 0 160 208 z " />
      <text
         xml:space="preserve"
         style="font-style:normal;font-weight:normal;font-size:16px;line-height:1.25;font-family:sans-serif;fill:#000000;fill-opacity:1;stroke:none"
         x="216"
         y="42"
         id="text73506"><tspan
           sodipodi:role="line"
           id="tspan73504"
           x="216"
           y="42">30</tspan></text>
      <text
         xml:space="preserve"
         style="font-style:normal;font-weight:normal;font-size:16px;line-height:1.25;font-family:sans-serif;fill:#000000;fill-opacity:1;stroke:none"
         x="216"
         y="106"
         id="text85598"><tspan
           sodipodi:role="line"
           id="tspan85596"
           x="216"
           y="106">20</tspan></text>
      <text
         xml:space="preserve"
         style="font-style:normal;font-weight:normal;font-size:16px;line-height:1.25;font-family:sans-serif;fill:#000000;fill-opacity:1;stroke:none"
         x="216"
         y="170"
         id="text86328"><tspan
           sodipodi:role="line"
           id="tspan86326"
           x="216"
           y="170">10</tspan></text>
      <text
         xml:space="preserve"
         style="font-style:normal;font-weight:normal;font-size:16px;line-height:1.25;font-family:sans-serif;text-align:end;text-anchor:end;fill:#000000;fill-opacity:1;stroke:none"
         x="104"
         y="170"
         id="text86980"><tspan
           sodipodi:role="line"
           id="tspan86978"
           x="104"
           y="170">10</tspan></text>
      <text
         xml:space="preserve"
         style="font-style:normal;font-weight:normal;font-size:16px;line-height:1.25;font-family:sans-serif;text-align:end;text-anchor:end;fill:#000000;fill-opacity:1;stroke:none"
         x="104"
         y="106"
         id="text88152"><tspan
           sodipodi:role="line"
           id="tspan88150"
           x="104"
           y="106">20</tspan></text>
      <text
         xml:space="preserve"
         style="font-style:normal;font-weight:normal;font-size:16px;line-height:1.25;font-family:sans-serif;text-align:end;text-anchor:end;fill:#000000;fill-opacity:1;stroke:none"
         x="104"
         y="42"
         id="text89152"><tspan
           sodipodi:role="line"
           id="tspan89150"
           x="104"
           y="42">30</tspan></text>
    </g>
    <rect
       style="fill:#000000;fill-opacity:1;stroke-width:0.944882;-inkscape-stroke:none;stop-color:#000000"
       id="rect89776"
       width="48"
       height="64"
       x="136"
       y="164"
       rx="0"
       ry="0"
       clip-path="url(#clipPath91510)" />
    <text
       xml:space="preserve"
       style="font-style:normal;font-weight:normal;font-size:40px;line-height:1.25;font-family:sans-serif;text-align:center;text-anchor:middle;fill:#ffffff;fill-opacity:1;stroke:none;stroke-width:0.999999"
       x="160"
       y="267"
       id="text43538"><tspan
         sodipodi:role="line"
         id="tspan43536"
         style="font-size:40px;text-align:center;text-anchor:middle;fill:#ffffff;stroke-width:0.999999"
         x="160"
         y="267">21.8</tspan></text>
  </g>
</svg>
